<svg width="512" height="512" viewBox="0 0 512 512" fill="none" xmlns="http://www.w3.org/2000/svg">
<rect width="512" height="512" rx="256" fill="url(#paint0_linear_13_52)"/>
<path d="M274.5 126.562C320.755 126.562 358.281 164.089 358.281 210.344C358.281 256.598 320.755 294.125 274.5 294.125H213.781V316.219H297.078C305.966 316.219 313.125 323.378 313.125 332.266C313.125 341.154 305.966 348.312 297.078 348.312H213.781V363.875C213.781 375.247 204.59 384.438 193.219 384.438C181.847 384.438 172.656 375.247 172.656 363.875V348.312H152.578C143.69 348.312 136.531 341.154 136.531 332.266C136.531 323.378 143.69 316.219 152.578 316.219H172.656V294.125H152.578C143.69 294.125 136.531 286.966 136.531 278.078C136.531 269.19 143.69 262.031 152.578 262.031H172.656V147.125C172.656 135.753 181.847 126.562 193.219 126.562H274.5ZM213.781 253H274.5C298.068 253 317.156 233.912 317.156 210.344C317.156 186.776 298.068 167.688 274.5 167.688H213.781V253Z" fill="#333232" stroke="#333232" stroke-width="5"/>
<defs>
<linearGradient id="paint0_linear_13_52" x1="256" y1="0" x2="256" y2="512" gradientUnits="userSpaceOnUse">
<stop stop-color="#FFDD2F"/>
<stop offset="1" stop-color="#FFDD2F"/>
</linearGradient>
</defs>
</svg>
