<svg width="512" height="512" viewBox="0 0 512 512" fill="none" xmlns="http://www.w3.org/2000/svg">
<rect width="512" height="512" rx="256" fill="url(#paint0_linear_13_52)"/>
<path d="M274.5 127.562C320.202 127.562 357.281 164.641 357.281 210.344C357.281 256.046 320.202 293.125 274.5 293.125H212.781V317.219H297.078C305.414 317.219 312.125 323.93 312.125 332.266C312.125 340.601 305.414 347.312 297.078 347.312H212.781V363.875C212.781 374.694 204.038 383.438 193.219 383.438C182.4 383.438 173.656 374.694 173.656 363.875V347.312H152.578C144.242 347.312 137.531 340.601 137.531 332.266C137.531 323.93 144.242 317.219 152.578 317.219H173.656V293.125H152.578C144.242 293.125 137.531 286.414 137.531 278.078C137.531 269.742 144.242 263.031 152.578 263.031H173.656V147.125C173.656 136.306 182.4 127.562 193.219 127.562H274.5ZM212.781 254H274.5C298.62 254 318.156 234.464 318.156 210.344C318.156 186.223 298.62 166.688 274.5 166.688H212.781V254Z" fill="#333232" stroke="#333232" stroke-width="3"/>
<defs>
<linearGradient id="paint0_linear_13_52" x1="256" y1="0" x2="256" y2="512" gradientUnits="userSpaceOnUse">
<stop stop-color="#FFDD2F"/>
<stop offset="1" stop-color="#FFDD2F"/>
</linearGradient>
</defs>
</svg>
