<svg width="512" height="512" viewBox="0 0 512 512" fill="none" xmlns="http://www.w3.org/2000/svg">
<rect width="512" height="512" rx="256" fill="url(#paint0_linear_13_52)"/>
<path d="M193.219 129.062C183.228 129.062 175.156 137.134 175.156 147.125V264.531H152.578C145.071 264.531 139.031 270.571 139.031 278.078C139.031 285.585 145.071 291.625 152.578 291.625H175.156V318.719H152.578C145.071 318.719 139.031 324.758 139.031 332.266C139.031 339.773 145.071 345.812 152.578 345.812H175.156V363.875C175.156 373.866 183.228 381.938 193.219 381.938C203.21 381.938 211.281 373.866 211.281 363.875V345.812H297.078C304.585 345.812 310.625 339.773 310.625 332.266C310.625 324.758 304.585 318.719 297.078 318.719H211.281V291.625H274.5C319.374 291.625 355.781 255.218 355.781 210.344C355.781 165.47 319.374 129.062 274.5 129.062H193.219ZM274.5 255.5H211.281V165.188H274.5C299.449 165.188 319.656 185.395 319.656 210.344C319.656 235.293 299.449 255.5 274.5 255.5Z" fill="#333232"/>
<defs>
<linearGradient id="paint0_linear_13_52" x1="256" y1="0" x2="256" y2="512" gradientUnits="userSpaceOnUse">
<stop stop-color="#FFDD2F"/>
<stop offset="1" stop-color="#FFDD2F"/>
</linearGradient>
</defs>
</svg>
